<svg xmlns="http://www.w3.org/2000/svg" version="1.1" viewBox="-5.0 -10.0 110.0 135.0">
 <path d="m97.852 45.508-5.5625-17.117c-0.51172-1.5742-2.2031-2.4375-3.7812-1.9258l-26.508 8.6133v-27.879c0-1.6562-1.3438-3-3-3h-18c-1.6562 0-3 1.3438-3 3v27.879l-26.512-8.6133c-1.5742-0.51172-3.2695 0.35156-3.7812 1.9258l-5.5586 17.117c-0.51172 1.5742 0.35156 3.2695 1.9258 3.7812l26.512 8.6094-16.387 22.555c-0.97266 1.3398-0.67578 3.2148 0.66406 4.1914l14.562 10.582c1.3398 0.97266 3.2148 0.67578 4.1914-0.66406l16.383-22.551 16.383 22.551c0.97266 1.3398 2.8516 1.6367 4.1914 0.66406l14.562-10.582c1.3398-0.97266 1.6367-2.8516 0.66406-4.1914l-16.387-22.551 26.512-8.6133c1.5781-0.51562 2.4375-2.2031 1.9258-3.7812zm-34.215 7.9648c-1.5742 0.51172-2.4375 2.2031-1.9258 3.7812 0.097656 0.30078 0.24219 0.58203 0.42578 0.83594l17.047 23.465-9.707 7.0547-17.051-23.465c-0.97266-1.3398-2.8516-1.6367-4.1914-0.66406-0.25391 0.18359-0.48047 0.41016-0.66406 0.66406l-17.047 23.465-9.707-7.0547 17.047-23.465c0.97266-1.3398 0.67578-3.2148-0.66406-4.1914-0.25391-0.18359-0.53516-0.32813-0.83594-0.42578l-27.582-8.9609 3.707-11.41 27.586 8.9609c1.5742 0.51172 3.2695-0.35156 3.7812-1.9258 0.09375-0.30078 0.14453-0.61328 0.14453-0.92969v-29.008h12v29.008c0 1.6562 1.3438 3 3 3 0.31641 0 0.62891-0.050781 0.92578-0.14844l27.586-8.9609 3.707 11.414z"/>
</svg>