<svg xmlns="http://www.w3.org/2000/svg" version="1.1" viewBox="-5.0 -10.0 110.0 135.0">
 <path d="m8.6602 32h-0.66016v36h0.66016z"/>
 <path d="m11.309 32h-0.66406v36h0.66406z"/>
 <path d="m13.953 32h-1.9844v36h1.9844z"/>
 <path d="m16.598 32h-1.9844v36h1.9844z"/>
 <path d="m17.922 32h-0.66016v36h0.66016z"/>
 <path d="m19.242 32h-0.66016v36h0.66016z"/>
 <path d="m20.566 32h-0.66016v36h0.66016z"/>
 <path d="m24.535 32h-1.9844v36h1.9844z"/>
 <path d="m27.18 32h-1.9844v36h1.9844z"/>
 <path d="m28.504 32h-0.66016v36h0.66016z"/>
 <path d="m31.148 32h-1.9844v36h1.9844z"/>
 <path d="m32.473 32h-0.66016v36h0.66016z"/>
 <path d="m35.117 32h-0.66016v36h0.66016z"/>
 <path d="m36.441 32h-0.66016v36h0.66016z"/>
 <path d="m39.086 32h-1.9844v36h1.9844z"/>
 <path d="m40.41 32h-0.66406v36h0.66406z"/>
 <path d="m41.73 32h-0.66016v36h0.66016z"/>
 <path d="m45.699 32h-1.9844v36h1.9844z"/>
 <path d="m48.348 32h-1.9844v36h1.9844z"/>
 <path d="m49.668 32h-0.66016v36h0.66016z"/>
 <path d="m52.316 32h-1.9844v36h1.9844z"/>
 <path d="m53.637 32h-0.66016v36h0.66016z"/>
 <path d="m56.285 32h-0.66406v36h0.66406z"/>
 <path d="m57.605 32h-0.66016v36h0.66016z"/>
 <path d="m60.254 32h-1.9844v36h1.9844z"/>
 <path d="m61.574 32h-0.66016v36h0.66016z"/>
 <path d="m62.898 32h-0.66406v36h0.66406z"/>
 <path d="m66.867 32h-1.9844v36h1.9844z"/>
 <path d="m69.512 32h-1.9844v36h1.9844z"/>
 <path d="m70.836 32h-0.66406v36h0.66406z"/>
 <path d="m73.48 32h-1.9844v36h1.9844z"/>
 <path d="m74.805 32h-0.66406v36h0.66406z"/>
 <path d="m77.449 32h-0.66016v36h0.66016z"/>
 <path d="m78.773 32h-0.66406v36h0.66406z"/>
 <path d="m81.418 32h-1.9844v36h1.9844z"/>
 <path d="m82.738 32h-0.66016v36h0.66016z"/>
 <path d="m85.387 32h-0.66406v36h0.66406z"/>
 <path d="m88.031 32h-1.9844v36h1.9844z"/>
 <path d="m90.676 32h-1.9844v36h1.9844z"/>
 <path d="m92 32h-0.66016v36h0.66016z"/>
</svg>