<svg xmlns="http://www.w3.org/2000/svg" viewBox="0 0 216.1 96.71"><g id="Layer_2" data-name="Layer 2"><g id="Layer_1-2" data-name="Layer 1"><path d="M30.87,25.74V2.88c0-1.69-3.43,2.12-8,0C18.29,1.28,12.58,3,8,2.88,3.43.5,0,3.46,0,2.88V33.75c0-1.12,3.43-2.74,8,0,4.58.16,10.29,3.94,14.87,0,4.57-1.92,8-1.26,8,0v-8Z"/><path d="M61.74,41.75v-8c0-1.19-3.43-2-8,0-4.57,1.81-10.29,1.5-14.86,0-4.58.92-8-4.48-8,0V64.62c0-1.84,3.43.53,8,0,4.57-2.29,10.29-3.46,14.86,0,4.57-.13,8-1.1,8,0V41.75Z"/><path d="M69.75,33.75c4.57-3.21,10.29,2.12,14.86,0,4.57,2.48,8,1.28,8,0V2.88c0,1.85-3.43-1.35-8,0C80,4.06,74.32,4.67,69.75,2.88c-4.58-5.06-8-2.4-8,0V33.75C61.74,31.15,65.17,35.13,69.75,33.75Z"/><path d="M123.49,56.83V33.75c0-2.07-3.43-3-8,0-4.57-5.93-10.29-.88-14.86,0-4.57-3.32-8,4.65-8,0V64.62c0,2.82,3.44.42,8,0,4.57,2.25,10.29-.66,14.86,0,4.58,2.29,8-1.27,8,0V56.83Z"/><path d="M131.49,33.75c4.57-1.56,10.29,2,14.86,0,4.58-.12,8-2.42,8,0V2.88c0,2.86-3.43,2.11-8,0-4.57-.72-10.29-4.34-14.86,0-4.57.05-8-.16-8,0V32.94h0v.81C123.49,29.82,126.92,34.56,131.49,33.75Z"/><path d="M185.23,56.62V33.75c0,4.88-3.43.61-8,0-4.58,6.45-10.29,2.88-14.87,0-4.57-4.48-8-2.73-8,0V64.62c0,.8,3.43.89,8,0,4.58,1.36,10.29-1.3,14.87,0,4.57-2.66,8-3.72,8,0v-8Z"/><path d="M22.87,64.62c-4.58-.88-10.29-1.48-14.87,0-4.57,0-8,.11-8,0V95.49c0-1,3.43,1.93,8,0s10.29-5.16,14.87,0c4.57-4.55,8,.29,8,0V64.62C30.87,67.64,27.44,63.64,22.87,64.62Z"/><path d="M84.61,64.62C80,62.07,74.32,63,69.75,64.62c-4.58.11-8-4.72-8,0V95.49c0,1.87,3.43-1.43,8,0,4.57,4.25,10.29-6.48,14.86,0,4.57.21,8-4.43,8,0V64.62C92.61,66.24,89.18,60.22,84.61,64.62Z"/><path d="M146.35,64.62c-4.57-7.12-10.29-3.94-14.86,0-4.57-4-8,4.06-8,0V95.49c0-3.72,3.43-4.56,8,0,4.57,2.07,10.29-6.3,14.86,0,4.58,1.78,8,1.46,8,0V64.62A38.91,38.91,0,0,0,146.35,64.62Z"/><path d="M193.23,33.75c4.58,2.68,10.29,4,14.87,0,4.57-6.19,8,0,8,0V2.88c0-.85-3.43,5-8,0-4.58,3-10.29,1.28-14.87,0-4.57,3.06-8,4.58-8,0V33.75C185.23,29.25,188.66,26.89,193.23,33.75Z"/><path d="M185.23,72.62V95.49c0-3.65,3.43,1.27,8,0,4.58-5.32,10.29,1.09,14.87,0,4.57-1.45,8-2.42,8,0V64.62c0-.46-3.43-2.21-8,0-4.58,1.5-10.29-1.88-14.87,0-4.57-1.69-8-1.31-8,0v8Z"/></g></g></svg>