<svg xmlns="http://www.w3.org/2000/svg" viewBox="0 0 225.06 225.07"><g id="Layer_2" data-name="Layer 2"><g id="Layer_1-2" data-name="Layer 1"><path d="M113.38,0h-1.69a112.53,112.53,0,0,0,0,225.05h1.62a112.53,112.53,0,0,0,0-225Zm83.75,172.21c-7,1.35-14.07,2.55-21.24,3.56a137.38,137.38,0,0,0,8.79-25.53c6.92-.56,13.86-1.19,20.7-1.92l4.52-.49A103.16,103.16,0,0,1,197.13,172.22ZM15.22,148c8.07.91,16.39,1.68,25.18,2.35a137.92,137.92,0,0,0,8.78,25.44c-7.25-1-14.33-2.16-21.19-3.49A103.17,103.17,0,0,1,15.22,148ZM28,52.77c6.86-1.32,13.94-2.49,21.19-3.49A138.28,138.28,0,0,0,40.4,74.73c-8.78.66-17.1,1.44-25.18,2.34A103.56,103.56,0,0,1,28,52.77ZM209.9,77.23l-4.52-.5c-6.84-.73-13.78-1.37-20.7-1.93a137.28,137.28,0,0,0-8.79-25.52c7.18,1,14.29,2.21,21.24,3.57A103.16,103.16,0,0,1,209.9,77.23ZM117,45c6.41,0,12.83.24,19.18.55a212.34,212.34,0,0,1,5.3,26.89c-8.07-.24-16.26-.38-24.48-.41Zm-9,27c-8.08,0-16.28.2-24.48.45a212.6,212.6,0,0,1,5.29-26.88c6.39-.32,12.81-.52,19.19-.59ZM82.51,81.5c8.56-.28,17.11-.44,25.54-.49v27H81C81.16,98.71,81.67,89.83,82.51,81.5ZM108.05,117v27c-8.42-.05-17-.21-25.54-.49-.84-8.33-1.35-17.21-1.48-26.55Zm0,36v27c-6.38-.07-12.8-.27-19.19-.59a212.42,212.42,0,0,1-5.29-26.89C91.78,152.83,100,153,108.05,153Zm9,0c8.23,0,16.42-.16,24.48-.4a212.16,212.16,0,0,1-5.3,26.88c-6.36.31-12.77.49-19.18.55Zm25.54-9.41c-8.4.27-16.94.42-25.54.45V117h27C143.91,126.38,143.39,135.28,142.55,143.62ZM117,108.05V81c8.61,0,17.14.18,25.54.44.84,8.35,1.36,17.25,1.48,26.61ZM145.57,46.1c6.62.47,13.22,1.08,19.72,1.83a124.81,124.81,0,0,1,10,26.17c-8.17-.56-16.46-1-24.75-1.34A237.37,237.37,0,0,0,145.57,46.1ZM117,36V10.21c5.84,3.18,11.67,12.39,16.4,26.23C128,36.21,122.48,36.08,117,36Zm-9-25.83V36.05c-5.46.06-11,.2-16.42.45C96.37,22.63,102.2,13.4,108.05,10.21ZM74.55,72.8c-8.75.35-16.91.77-24.74,1.27A124.7,124.7,0,0,1,59.76,48c5.26-.6,10.65-1.11,16.09-1.54l3.63-.26A234.63,234.63,0,0,0,74.55,72.8ZM47.75,83.19c8.15-.55,16.64-1,25.77-1.37-.84,8.62-1.33,17.45-1.45,26.23h-27A154.07,154.07,0,0,1,47.75,83.19ZM72.07,117c.12,8.78.61,17.61,1.45,26.23-9.13-.37-17.62-.82-25.77-1.37A154.31,154.31,0,0,1,45.05,117Zm2.48,35.24a234.22,234.22,0,0,0,4.93,26.63c-1.2-.08-2.4-.16-3.63-.26-5.45-.42-10.84-.94-16.09-1.53A124.7,124.7,0,0,1,49.81,151C57.64,151.5,65.8,151.92,74.55,152.26ZM108.05,189v25.85c-5.85-3.19-11.68-12.42-16.42-26.29C97.1,188.81,102.59,189,108.05,189Zm9,25.85V189c5.47-.05,11-.17,16.4-.41C128.68,202.46,122.85,211.67,117,214.86Zm33.5-62.55c8.3-.33,16.58-.78,24.75-1.35a124.6,124.6,0,0,1-10,26.17c-6.49.75-13.09,1.37-19.72,1.83A236.77,236.77,0,0,0,150.51,152.31Zm26.82-10.48c-8.5.61-17.13,1.1-25.79,1.46.84-8.63,1.33-17.47,1.46-26.27h27A154.71,154.71,0,0,1,177.33,141.83ZM153,108.05c-.13-8.8-.62-17.64-1.46-26.28,8.65.36,17.29.85,25.79,1.47A154.71,154.71,0,0,1,180,108.05ZM143,37c-2.85-9.17-6.31-17.14-10.34-23.3,10.23,4.91,19.42,13.45,26.93,24.64C154.09,37.76,148.55,37.31,143,37ZM92.4,13.66C88.36,19.83,84.9,27.82,82,37q-3.39.21-6.88.48c-3.26.25-6.5.54-9.71.85C73,27.14,82.16,18.57,92.4,13.66ZM12.3,86.43c8.41-1,17.06-1.84,26.22-2.57a163.56,163.56,0,0,0-2.43,24.19h-27A103.51,103.51,0,0,1,12.3,86.43ZM36.09,117a163.43,163.43,0,0,0,2.43,24.18c-9.16-.72-17.81-1.57-26.22-2.57A103.31,103.31,0,0,1,9.07,117Zm39.07,70.55q3.5.27,6.88.48c2.86,9.2,6.32,17.18,10.36,23.36C82.16,206.49,73,197.93,65.45,186.72,68.65,187,71.9,187.32,75.16,187.57Zm57.5,23.84c4-6.16,7.49-14.13,10.35-23.3,5.55-.35,11.09-.8,16.58-1.35C152.08,198,142.89,206.5,132.66,211.41Zm80.15-72.94c-2.77.33-5.57.65-8.38.95-5.9.63-11.89,1.18-17.86,1.68A163.7,163.7,0,0,0,189,117h27A103.2,103.2,0,0,1,212.81,138.47ZM189,108.05A163.43,163.43,0,0,0,186.57,84c6,.5,12,1,17.86,1.68,2.81.29,5.61.61,8.38.94A103.29,103.29,0,0,1,216,108.05Zm-.52-65.88c-5.8-1-11.68-1.85-17.59-2.59-1.18-2-2.38-4-3.66-5.94A92.29,92.29,0,0,0,153.68,17.5,103.91,103.91,0,0,1,188.45,42.17ZM71.38,17.5A92.25,92.25,0,0,0,57.87,33.64c-1.29,1.93-2.5,3.93-3.67,6q-8.93,1.09-17.55,2.52A104.1,104.1,0,0,1,71.38,17.5ZM36.65,182.94q8.61,1.42,17.55,2.52c1.17,2,2.38,4,3.67,6a91.93,91.93,0,0,0,13.52,16.15A104.06,104.06,0,0,1,36.65,182.94Zm117,24.63a92.37,92.37,0,0,0,13.52-16.15c1.28-1.92,2.48-3.91,3.66-5.94,5.9-.74,11.78-1.61,17.59-2.58A104,104,0,0,1,153.68,207.57Z"/></g></g></svg>