<svg xmlns="http://www.w3.org/2000/svg" viewBox="0 0 261.76 261.88"><defs><style>.cls-1{fill:none;stroke:#000;stroke-miterlimit:10;stroke-width:3px;}</style></defs><g id="Layer_2" data-name="Layer 2"><g id="Layer_1-2" data-name="Layer 1"><line class="cls-1" x1="96.31" y1="10.83" x2="96.31" y2="10.83"/><path class="cls-1" d="M128,253c4,8.07,23.08,7.06,40.82,1.41,8.89-2.83,16.81-6.65,22.46-11.41,4.49-3.79,6.91-8.71,5.14-11.77-4.61-7.93-23.27-6.59-40.56-1.11C139.19,235.47,124.65,246.09,128,253"/><path class="cls-1" d="M92.49,249.57c3,6.75,14.26,10.25,27.36,10.74,15.82.58,33.59-2.44,51.25-8.07,17.32-5.52,32.68-12.91,43.54-22.11,8.55-7.25,13-16.68,9.42-22.36-4.11-6.53-15.54-9.33-28.61-9.56-15.38-.26-32.3,2.71-49.07,8-16.48,5.23-31.31,12.2-42.28,21-8.9,7.1-14.39,16.2-11.61,22.39"/><path class="cls-1" d="M59.75,236.55c1.86,4.41,6.54,8,12.48,10.39,7,2.76,15.64,4.11,25.36,4.44a182.55,182.55,0,0,0,34.48-2.44,260.56,260.56,0,0,0,38-9.07,237.17,237.17,0,0,0,35.11-14.19,137.26,137.26,0,0,0,26.4-16.88c6.39-5.39,11.27-11.05,13.6-16.75,2-4.87,1.73-10.16-.86-14-2.82-4.17-8.18-7.25-14.61-9.24-7.38-2.27-16.11-3.26-25.7-3.32-21.41-.15-44.89,4.06-68.17,11.41-22.9,7.23-43.55,16.81-59,28.8-12.59,9.76-20.66,22.21-17,30.85"/><path class="cls-1" d="M32.44,214.87c2.08,5.21,7.61,9.49,14.67,12.24,8.33,3.24,18.75,4.78,30.47,5.11a225,225,0,0,0,41.82-3.15A324.51,324.51,0,0,0,165.67,218a295.59,295.59,0,0,0,42.76-17.16c12.37-6.19,23.25-12.92,32-20.23,7.71-6.41,13.58-13.12,16.34-19.85,2.34-5.72,1.93-12-1.24-16.36-3.5-4.86-10-8.35-17.78-10.57-8.94-2.55-19.46-3.58-31-3.53-25.74.1-53.87,5.26-81.81,14.05a300.79,300.79,0,0,0-39.65,15.49,186.88,186.88,0,0,0-31.51,18.64c-8.15,6.13-14.74,12.56-18.73,19.28-3.42,5.76-4.64,12.12-2.65,17.13"/><path class="cls-1" d="M12.82,186.17c2.14,5.5,8.09,10,15.69,12.85,9,3.39,20.37,4.92,33.14,5.18a254,254,0,0,0,45.76-3.74,368.81,368.81,0,0,0,50.78-12.24,335.37,335.37,0,0,0,47-18.68c13.57-6.7,25.51-13.95,35.16-21.79,8.43-6.86,14.86-14,17.89-21.18,2.54-6,2.08-12.64-1.38-17.23-3.86-5.09-11-8.66-19.43-10.89-9.76-2.58-21.22-3.52-33.78-3.34a272.06,272.06,0,0,0-42.92,4.38,370.92,370.92,0,0,0-46.13,11.31,340.61,340.61,0,0,0-43.24,16.71,211.89,211.89,0,0,0-34.53,20c-9,6.54-16.24,13.38-20.73,20.54-3.83,6.1-5.32,12.86-3.26,18.17"/><path class="cls-1" d="M2.59,152.66c2.09,5.32,8,9.62,15.58,12.28,9,3.19,20.36,4.55,33.15,4.67a264.11,264.11,0,0,0,45.89-4.1,385.36,385.36,0,0,0,51-12.39,350,350,0,0,0,47.28-18.58c13.67-6.63,25.7-13.76,35.46-21.47,8.51-6.72,15-13.68,18.14-20.69,2.59-5.83,2.2-12.27-1.21-16.66-3.83-4.91-10.92-8.27-19.36-10.34-9.78-2.39-21.24-3.17-33.81-2.86a284.21,284.21,0,0,0-43.05,4.69,386.49,386.49,0,0,0-46.33,11.43A356.4,356.4,0,0,0,61.87,95.27a220.1,220.1,0,0,0-34.81,19.67c-9,6.42-16.4,13.1-21,20.1C2.18,141,.59,147.54,2.59,152.66"/><path class="cls-1" d="M2.75,117.05c1.94,4.71,7.42,8.43,14.37,10.69,8.35,2.73,18.74,3.8,30.5,3.76a253.89,253.89,0,0,0,42.18-4.12,371.06,371.06,0,0,0,46.92-11.48A335.69,335.69,0,0,0,180.28,99C192.9,93,204,86.56,213.11,79.63c7.91-6,14-12.26,17-18.55,2.48-5.19,2.25-11-.78-14.84-3.44-4.37-9.89-7.29-17.6-9.06-9-2.06-19.5-2.66-31.08-2.28-26,.88-54.33,6.41-82.68,15.23A343.45,343.45,0,0,0,57.66,65.4,209,209,0,0,0,25.39,83.29C17,89.09,10.23,95.09,6,101.38c-3.58,5.27-5,11.16-3.21,15.67"/><path class="cls-1" d="M13.42,82.28c1.68,3.78,6.3,6.66,12.09,8.39,7,2.08,15.64,2.82,25.4,2.66a219.11,219.11,0,0,0,35-3.7,319.52,319.52,0,0,0,38.83-9.57,289.83,289.83,0,0,0,36.14-13.85,161.65,161.65,0,0,0,27.45-15.77c6.65-4.91,11.83-9.93,14.49-15,2.17-4.18,2.15-8.89-.25-12-2.74-3.54-8-5.87-14.35-7.27-7.43-1.63-16.17-2-25.81-1.66-21.73.87-45.5,5.57-69.34,13C69.6,34.7,48.43,43.8,32.11,54.92c-7,4.75-12.64,9.65-16.17,14.77-2.93,4.25-4.11,9-2.52,12.59"/><path class="cls-1" d="M33.8,51.31c1.29,2.61,4.66,4.53,8.85,5.66,5.05,1.37,11.25,1.8,18.22,1.61,16.13-.44,34.2-4,52.44-9.65,17.87-5.56,33.74-12.47,45.43-20.8,8.9-6.36,14-14.63,10.82-19-4.05-5.47-15.36-6.78-28.46-6.2-15.66.69-32.86,4.12-50.15,9.48-17,5.27-32.29,11.8-44,19.74C37.62,38.42,31.34,46.31,33.8,51.31"/><path class="cls-1" d="M62.23,26.79c1.62,2.9,7.45,3.76,14.28,3.51a106.37,106.37,0,0,0,27.07-5.06c9.22-2.87,17.44-6.4,23.57-10.66,4.7-3.26,7.56-7.48,6-9.78-1.95-2.85-7.82-3.54-14.65-3.23A107.32,107.32,0,0,0,92,6.59c-17.23,5.34-33,14.48-29.8,20.2"/><line class="cls-1" x1="163.59" y1="246.76" x2="163.59" y2="246.76"/><path class="cls-1" d="M96.31,10.83c-33,10.23-61.94,33.49-78.66,63.24C1.23,103.34-3,138.91,6.45,169.85c9.35,30.58,32.23,56.84,61.08,70.81,29.17,14.1,64.48,16.14,96.06,6.1"/><path class="cls-1" d="M96.31,10.83C66.57,14.68,39.64,31.89,25.36,56.26c-14.42,24.68-16.8,56.85-7.91,86.3C36.09,204,101.81,251.61,163.59,246.76"/><path class="cls-1" d="M96.31,10.83c-8.77-1.69-17.5-.35-24,4S60.64,27,57.79,36c-3.16,10-4.08,21.84-3.31,34.48A194,194,0,0,0,62.35,113a270.29,270.29,0,0,0,42.75,85.17,187.76,187.76,0,0,0,29.15,31.29c9.59,8,19.51,14.12,29.34,17.34"/><path class="cls-1" d="M96.31,10.83c-.23-3.89.89-6.06,1.73-5.16,2.1,2.24,4,7.11,6.5,13.66,3.16,8.25,6.49,18.17,10.08,29.53,4,12.56,8,26.19,12.13,40.65,8.64,30.45,16.74,61.6,23.8,91.64,3.28,14,6.16,27,8.52,38.9,2.09,10.49,3.68,19.45,4.52,26.71"/><path class="cls-1" d="M96.31,10.83C112.56-1.37,135.54-1,152,11c18.92,13.79,32.62,38.89,40.5,67.64a224.16,224.16,0,0,1,4.67,95.44c-5,29.7-16.16,56.4-33.58,72.71"/><path class="cls-1" d="M96.31,10.83c29.47-11.95,63.23-11,89.94,2.71S233,53.62,241,83.66c16.5,62-19,136.87-77.41,163.1"/><path class="cls-1" d="M96.31,10.83c33.35-7.41,70.08-1.54,99.93,15.88,29.51,17.25,51.9,45.8,60.3,77.4,8.19,30.89,2.64,64.93-14.61,91.08-17.38,26.3-46.5,45.11-78.34,51.57"/><path class="cls-1" d="M96.31,10.83c13.18-.09,27.11,3.17,40.63,9.14a152.44,152.44,0,0,1,40.44,26.85c25.79,23.48,45.19,54.76,54.1,87.66,4.23,15.67,5.91,31.35,4.63,46-1.22,13.85-5.17,26.77-11.76,37.31-12.39,19.79-36.56,30.8-60.76,29"/><path class="cls-1" d="M96.31,10.83c5.74,4.06,11.51,11.07,17.57,20a305.86,305.86,0,0,1,20.76,36.57,578.09,578.09,0,0,1,37.07,97.5,374.08,374.08,0,0,1,9.83,44c1.82,11.93,2.59,22.3,1.63,30.65-.75,6.49-2.95,11.74-6.46,13s-8.48-1.42-13.12-5.74"/><path class="cls-1" d="M96.31,10.83C91.46,17.47,88.15,27,85.88,38.24c-2.57,12.79-3.67,27.3-3.61,43a378.78,378.78,0,0,0,15.2,103.08,246.86,246.86,0,0,0,16.2,42.26c5.59,11,11.66,20.12,18.39,26.24,5.59,5.08,12.07,7.83,17.52,6.72s10.47-6.12,14-12.78"/><path class="cls-1" d="M96.31,10.83C70.49,24.62,49.64,51.69,38.46,83.61c-11.55,33-12.75,69.89-3,102.28,9.18,30.41,28.73,55.91,53.28,67.2,23.34,10.71,52.15,7.81,74.84-6.33"/><path class="cls-1" d="M96.31,10.83c-33,10.23-61.94,33.49-78.66,63.24C1.23,103.34-3,138.91,6.45,169.85c9.35,30.58,32.23,56.84,61.08,70.81,29.17,14.1,64.48,16.14,96.06,6.1"/></g></g></svg>