<svg width="400" height="111.112" viewBox="0 0 400 111.112" xmlns="http://www.w3.org/2000/svg"><path points="25,2 31,18 48,18 34,28 39,45 25,35 11,45 16,28 2,18 19,18" fill="#ff8100" d="M55.556 4.444 68.888 40h37.778L75.556 62.222 86.666 100 55.556 77.778 24.444 100l11.112 -37.778L4.444 40h37.778Z"/><path points="90,2 96,18 113,18 99,28 104,45 90,35 76,45 81,28 67,18 84,18" fill="#ff8100" d="m200 4.444 13.334 35.556h37.778L220 62.222 231.112 100 200 77.778 168.888 100l11.112 -37.778L148.888 40h37.778Z"/><path points="155,2 161,18 178,18 164,28 169,45 155,35 141,45 146,28 132,18 149,18" fill="#ff8100" d="m344.444 4.444 13.334 35.556h37.778l-31.112 22.222L375.556 100l-31.112 -22.222L313.334 100l11.11 -37.778L293.334 40h37.778Z"/></svg>