<svg xmlns="http://www.w3.org/2000/svg" viewBox="0 0 406.75 254.21"><defs><style>.cls-1{fill:#fff;}</style></defs><g id="Layer_2" data-name="Layer 2"><g id="Layer_1-2" data-name="Layer 1"><rect y="175.38" width="406.75" height="78.83"/><rect width="406.75" height="70.9"/><rect class="cls-1" y="70.9" width="406.75" height="104.48"/><path class="cls-1" d="M386.87,81.46c.32-1.59-2.31-1.71-5.16-1.71s-5.69.37-5.9,2c-1.26,11-2,19.07-3.37,30,0,.37-.1,1.22-.53,1.22s-.63-.73-.63-1.1c-1.16-9.91-2.32-19.44-3.58-30.08-.21-1.84-3.16-2-6.43-2-1.79,0-5,.12-4.74,1.71,2.64,14.31,5.06,26.42,7.9,40.73.53,2.69,1.27,5.74,1.48,7.33a46.62,46.62,0,0,1,.32,6c0,10.88-.11,18.46-.11,28.37,0,1.47,3.9,1.34,5.58,1.34,1.37,0,5.8.13,5.8-1V135.15a44.16,44.16,0,0,1,.63-6.48c.32-2,.63-4.65,1.16-7.22C382.24,107,384.24,95.89,386.87,81.46Z"/><path class="cls-1" d="M337.8,163.28V132.46c0-3.43-.53-5.5-1.9-7.71-2-3-5.37-3.3-5.37-3.79s3.26-1.1,5.16-4.4c1.37-2.2,1.79-4.52,1.79-8.07V98.09c0-5.13-1.16-10-4.32-13.45s-7.79-5-12.32-5H310.41c-1.37,0-2.11-.25-2.74.73a7.88,7.88,0,0,0-.42,3.06v79.12c0,2.69.84,2.69,5.16,2.69,5.27,0,6.11,0,6.11-2.32v-34c0-1.71.42-1.59,4.11-1.59,2.63,0,3.9,3.43,3.9,7.71v28.13c0,2.2.42,2.07,5.47,2.07S337.8,165.23,337.8,163.28Z"/><path class="cls-1" d="M285.48,147.62V97.12c0-10.64-6.32-17.49-15.38-17.49-8.74,0-15.27,6.85-15.27,17.49v50.5c0,10,5.58,17.61,15.27,17.61C280.32,165.23,285.48,157.9,285.48,147.62Z"/><path class="cls-1" d="M232.92,155.08c1.26-2.69,1.68-7.33,1.68-11,0-19.94-20.12-29.84-20.12-44.27a39.52,39.52,0,0,1,.32-4.9c.21-2,1.68-3.91,3.58-3.91s3.79,2.08,3.79,5.5v5.63c0,.86,2.11.86,6.11.86,3.58,0,5.06.12,5.06-.74v-6c0-8.93-6-16.63-15-16.63a13.72,13.72,0,0,0-12.33,8,33.69,33.69,0,0,0-2.63,11.86c0,18.34,19.91,33.14,19.91,43.78,0,1.71-.11,3.55-.21,5.63s-1,4.52-3.79,4.52c-3.17,0-3.9-2.69-3.9-7.21V141c0-1-2-1-6.22-1s-5.16.12-5.16,1.22v6.85c0,11.13,6.64,17.12,15.28,17.12C226.91,165.23,229.33,162.54,232.92,155.08Z"/><path class="cls-1" d="M182.8,163.16V81.83c0-2-.32-2.08-5.9-2.08-5,0-5.38.12-5.38,2V163.4c0,1.71.21,1.71,5.38,1.71C182.69,165.11,182.8,165,182.8,163.16Z"/><path class="cls-1" d="M151.71,81.58c.21-1.71-.63-1.83-5.8-1.83s-5.37,0-5.58,2.08c-1.16,11.25-2.74,37.42-4.21,51.24,0,.61-.11,1.22-.53,1.22s-.42-.73-.42-1.22c-1.27-13.7-2.43-38.89-3.48-51.24-.32-1.84-.42-2.2-6-2.2-5.27,0-6,0-5.8,1.83,3.58,29.72,7.27,61.88,9.38,81.7.21,2.07,1.26,2.07,6.11,2.07,4.53,0,5.58,0,5.79-1.83C143.6,141.63,148,111.42,151.71,81.58Z"/><path class="cls-1" d="M100.59,146.65V98.09c0-5.26-1.26-10.15-4.32-13.45a16.6,16.6,0,0,0-12.43-5H73.09c-1.37,0-2.1-.13-2.73.73a6,6,0,0,0-.43,3.06v78a5.7,5.7,0,0,0,.43,2.94c.42,1,1.26.85,2.63.85H84A15.55,15.55,0,0,0,96.06,160,19.66,19.66,0,0,0,100.59,146.65Z"/><path class="cls-1" d="M44.44,165.23c2.84,0,6,.13,5.79-1.22C46,132.09,43.7,113,39.59,81.71c-.21-2.08-3.06-2.21-5.69-2.21-2.32,0-5.27.13-5.48,1.84-3.47,29.47-6.21,50.87-10.11,82.79-.11,1.1,3.58,1.1,5.16,1.1,3.37,0,5.69.13,5.79-1.22.53-7.09.95-11.62,1.58-18.47.11-1.22,1.16-1,3.17-1,1.68,0,3-.25,3.05,1,.84,6.73,1.26,11.38,2.11,18.23C39.38,165.48,41.38,165.23,44.44,165.23Z"/><path d="M381.71,79.75c2.85,0,5.48.12,5.16,1.71-2.63,14.43-4.63,25.56-7.58,40-.53,2.57-.84,5.26-1.16,7.22a44.16,44.16,0,0,0-.63,6.48v29.11c0,1.1-4.43,1-5.8,1-1.68,0-5.58.13-5.58-1.34,0-9.91.11-17.49.11-28.37a46.62,46.62,0,0,0-.32-6c-.21-1.59-1-4.64-1.48-7.33-2.84-14.31-5.26-26.42-7.9-40.73-.31-1.59,3-1.71,4.74-1.71,3.27,0,6.22.12,6.43,2,1.26,10.64,2.42,20.17,3.58,30.08,0,.37.21,1.1.63,1.1s.53-.85.53-1.22c1.37-10.89,2.11-19,3.37-30C376,80.12,379,79.75,381.71,79.75Z"/><path class="cls-1" d="M381.23,194c0,2.75-.06,3.05-.63,3.05h-2.25a5.22,5.22,0,0,0-1.51.12c-.47.42-.37,1.44-.37,2.22v33.16c0,.54-.57.6-3,.6-2.2,0-2.67,0-2.67-.6V199.42c0-.78.11-1.8-.36-2.22a5.26,5.26,0,0,0-1.52-.12H367c-.79,0-.94-.42-.94-2.93s.1-2.94.73-2.94h13.8C381.17,191.21,381.23,191.75,381.23,194Z"/><path class="cls-1" d="M380.46,55c0,4.06,0,4.11-.67,4.11H366.64c-.9,0-1.85.12-2.24-.22s-.34-1.24-.34-1.92V20.79c0-.79,0-1.13,3.92-1.13,4.26,0,4.48.17,4.48,1.13V49c0,.73,0,1.8.28,2a4.45,4.45,0,0,0,1.68.22h5.32C380.41,51.22,380.46,51.34,380.46,55Z"/><path class="cls-1" d="M356.51,231.44c0,1.56.05,1.74-2.61,1.74-1.36,0-1.93-.12-2.3-1.62-1.73-7-2.35-10.13-4.18-17.69-.32-1.32-.73-3.54-1.1-3.54s-.37,1.26-.37,2V232.1c0,1-.15,1.08-2.87,1.08s-2.61-.12-2.61-1V192.05c0-.84.1-.84,2.4-.84s2.51.24,2.93,1.92c1.1,4.91,2.61,11.33,4.23,17.68.11.6.32,1.56.63,1.56s.36-1.14.36-1.8V192.29c0-1,.16-1.08,2.77-1.08s2.72.06,2.72,1Z"/><path d="M337.8,132.46v30.82c0,1.95-.74,1.95-5.8,1.95s-5.47.13-5.47-2.07V135c0-4.28-1.27-7.71-3.9-7.71-3.69,0-4.11-.12-4.11,1.59v34c0,2.32-.84,2.32-6.11,2.32-4.32,0-5.16,0-5.16-2.69V83.42a7.88,7.88,0,0,1,.42-3.06c.63-1,1.37-.73,2.74-.73h10.43c4.53,0,9.16,1.46,12.32,5s4.32,8.32,4.32,13.45v10.4c0,3.55-.42,5.87-1.79,8.07-1.9,3.3-5.16,4-5.16,4.4s3.37.74,5.37,3.79C337.27,127,337.8,129,337.8,132.46Z"/><path d="M326.21,109v-8.32c0-2.57-.11-4.89-1.48-6.72-.73-1-1.37-1.47-3.79-1.47-.95,0-1.68,0-2.11.61a3.86,3.86,0,0,0-.31,1.59v18.22c0,1.1,0,2,.53,2.45s1.05.24,1.89.24a4.91,4.91,0,0,0,3.79-1.83A7.25,7.25,0,0,0,326.21,109Z"/><path class="cls-1" d="M336,58.55c.11.62-2.91.56-4.43.56s-3.47.12-3.58-.67c-.45-3.16-.61-4.57-1.06-7.67-.06-.56-.56-.45-1.46-.45-1.06,0-1.62-.11-1.68.45-.33,3.16-.5,4.51-.78,7.78-.06.62-2,.56-3.8.56-.84,0-4.09,0-4-.5,2.4-14.83,3.8-23.62,5.93-38.16.11-.79,3-.85,4.25-.85,1.4,0,3.92.06,4.09,1C331.81,35.05,333.32,43.78,336,58.55Z"/><path class="cls-1" d="M326.5,44.57c-.17-3.38-.34-5.07-.62-9.52,0-.28-.17-2.43-.56-2.43s-.5,2.48-.5,2.71c-.23,4.06-.45,5.75-.62,9.19,0,.45.11.45,1.07.45C326.05,45,326.5,45.14,326.5,44.57Z"/><path class="cls-1" d="M330,227.3c.63,0,.68.24.68,2.88s-.05,3-.63,3H320c-.84,0-1.73.12-2.1-.24s-.31-1.32-.31-2V193a1.66,1.66,0,0,1,.37-1.32c.31-.48.68-.48,1.2-.48H330c.63,0,.63.48.63,2.82,0,2.69,0,3.05-.68,3.05H324.7c-.42,0-1.05.06-1.2.3-.26.42-.26.36-.26,1.14v7.92c0,.54-.11,1.2.31,1.56a1.57,1.57,0,0,0,1.15.24h2.51c.63,0,.68.36.68,3s0,2.88-.68,2.88h-2.35a3.52,3.52,0,0,0-1.31.18c-.47.36-.37,1-.37,1.74V225c0,.78,0,1.92.26,2.1a3.75,3.75,0,0,0,1.57.24Z"/><path class="cls-1" d="M326.21,100.66V109a7.25,7.25,0,0,1-1.48,4.77,4.91,4.91,0,0,1-3.79,1.83c-.84,0-1.47.12-1.89-.24s-.53-1.35-.53-2.45V94.67a3.86,3.86,0,0,1,.31-1.59c.43-.61,1.16-.61,2.11-.61,2.42,0,3.06.49,3.79,1.47C326.1,95.77,326.21,98.09,326.21,100.66Z"/><path d="M325.88,35.05c.28,4.45.45,6.14.62,9.52,0,.57-.45.4-1.23.4-1,0-1.07,0-1.07-.45.17-3.44.39-5.13.62-9.19,0-.23.17-2.71.5-2.71S325.88,34.77,325.88,35.05Z"/><path class="cls-1" d="M307.82,191.21c.63,0,.68.54.68,2.82,0,2.75-.05,3.05-.63,3.05h-2.25a5.22,5.22,0,0,0-1.51.12c-.47.42-.37,1.44-.37,2.22v33.16c0,.54-.57.6-3,.6-2.19,0-2.66,0-2.66-.6V199.42c0-.78.1-1.8-.37-2.22a5.26,5.26,0,0,0-1.52-.12h-1.93c-.78,0-.94-.42-.94-2.93s.1-2.94.73-2.94Z"/><path class="cls-1" d="M287.35,19.66c.67,0,.73.4.73,3.61,0,3.94-.06,4.28-.67,4.28H285a10.54,10.54,0,0,0-2.13.11c-.5.4-.39,1.36-.39,2.09v28.8c0,.51-.34.56-4.48.56-3.64,0-4,0-4-.56V29.75c0-.73.11-1.69-.39-2.09a10.2,10.2,0,0,0-2.07-.11H269.5c-.84,0-1-.51-1-4s.11-3.89.78-3.89Z"/><path d="M285.48,97.12v50.5c0,10.28-5.16,17.61-15.38,17.61-9.69,0-15.27-7.58-15.27-17.61V97.12c0-10.64,6.53-17.49,15.27-17.49C279.16,79.63,285.48,86.48,285.48,97.12Z"/><path d="M274.11,144.93V99.56c0-3.42-.95-7.34-4-7.34s-4,3.92-4,7.34v45.37c0,3.43.1,7.34,4,7.34C273.79,152.27,274.11,148.36,274.11,144.93Z"/><path class="cls-1" d="M284,231.44c0,1.56.06,1.74-2.61,1.74-1.36,0-1.93-.12-2.3-1.62-1.72-7-2.35-10.13-4.18-17.69-.31-1.32-.73-3.54-1.1-3.54s-.36,1.26-.36,2V232.1c0,1-.16,1.08-2.88,1.08s-2.61-.12-2.61-1V192.05c0-.84.1-.84,2.4-.84s2.51.24,2.93,1.92c1.1,4.91,2.61,11.33,4.23,17.68.11.6.32,1.56.63,1.56s.37-1.14.37-1.8V192.29c0-1,.15-1.08,2.77-1.08s2.71.06,2.71,1Z"/><path class="cls-1" d="M274.11,99.56v45.37c0,3.43-.32,7.34-4,7.34-3.9,0-4-3.91-4-7.34V99.56c0-3.42.84-7.34,4-7.34S274.11,96.14,274.11,99.56Z"/><path class="cls-1" d="M257.62,199.78v24.76c0,5-2.56,8.64-7.63,8.64-4.81,0-7.58-3.72-7.58-8.64V199.78c0-5.21,3.24-8.57,7.58-8.57S257.62,194.57,257.62,199.78Z"/><path class="cls-1" d="M252,223.22V201c0-1.68-.47-3.6-2-3.6s-2,1.92-2,3.6v22.24c0,1.68.06,3.6,2,3.6S252,224.9,252,223.22Z"/><path d="M252,201v22.24c0,1.68-.16,3.6-2,3.6s-2-1.92-2-3.6V201c0-1.68.42-3.6,2-3.6S252,199.3,252,201Z"/><path class="cls-1" d="M239,58.16c0,.9.17,1-4.14,1-2.07,0-2.58.12-2.91-.84-2.07-5.92-2.46-7.83-4.59-15.05-.28-1-.73-2.48-1.18-2.48s-.39,1.69-.39,2.82v14.6c0,.9-.05,1-4.36,1-4,0-3.81,0-3.81-.84V20.73c0-1-.17-1,3.81-1,3.19,0,3.41.05,3.69,1.07.62,2.2,2.8,9.64,4.48,14.65.17.57.39,1.52.78,1.52s.45-1.46.45-2.31V20.73c0-1,.06-1,4-1,4.36,0,4.14.05,4.14,1.07Z"/><path d="M234.6,144.08c0,3.67-.42,8.31-1.68,11-3.59,7.46-6,10.15-13.59,10.15-8.64,0-15.28-6-15.28-17.12v-6.85c0-1.1.95-1.22,5.16-1.22s6.22,0,6.22,1v5.14c0,4.52.73,7.21,3.9,7.21,2.84,0,3.58-2.44,3.79-4.52s.21-3.92.21-5.63c0-10.64-19.91-25.44-19.91-43.78a33.69,33.69,0,0,1,2.63-11.86,13.72,13.72,0,0,1,12.33-8c9,0,15,7.7,15,16.63v6c0,.86-1.48.74-5.06.74-4,0-6.11,0-6.11-.86V96.5c0-3.42-2-5.5-3.79-5.5s-3.37,2-3.58,3.91a39.52,39.52,0,0,0-.32,4.9C214.48,114.24,234.6,124.14,234.6,144.08Z"/><path class="cls-1" d="M233.19,221.67v3.11c0,5-2.51,8.4-7.37,8.4-4.71,0-7.58-3.84-7.58-8.4V199.66c0-4.61,2.87-8.45,7.58-8.45,4.91,0,7.37,4.08,7.37,8.45v3.24c0,.6-.42.78-2.82.78-1.73,0-2.62.12-2.62-.66V199.9c0-.84-.57-2.52-1.93-2.52-1.62,0-2,1.86-2,3.42v22.6c0,1.68.37,3.42,2,3.42s1.93-1.44,1.93-2.4v-3.11c0-.84.47-.78,2.77-.78S233.19,220.59,233.19,221.67Z"/><path class="cls-1" d="M192.25,194c0,2.75-.06,3.05-.63,3.05h-2.25a5.22,5.22,0,0,0-1.51.12c-.47.42-.37,1.44-.37,2.22v33.16c0,.54-.57.6-3,.6-2.2,0-2.67,0-2.67-.6V199.42c0-.78.11-1.8-.36-2.22a5.26,5.26,0,0,0-1.52-.12H178c-.79,0-.94-.42-.94-2.93s.1-2.94.73-2.94h13.8C192.19,191.21,192.25,191.75,192.25,194Z"/><path class="cls-1" d="M188.82,55c0,4.06,0,4.11-.67,4.11H175c-.89,0-1.85.12-2.24-.22s-.33-1.24-.33-1.92V21.35a1.44,1.44,0,0,1,.39-1.24c.33-.45.73-.45,1.29-.45H188c.67,0,.67.17.67,3.61,0,4.06,0,4.28-.72,4.28h-5.6c-.45,0-1.12.06-1.29.28-.28.4-.28.34-.28,1.07V33c0,.51-.11,1.13.34,1.46a1.82,1.82,0,0,0,1.23.23h2.74c.67,0,.62.23.62,4,0,3.61.11,3.83-.62,3.83h-2.52a4.36,4.36,0,0,0-1.4.17c-.5.34-.39.91-.39,1.64V49c0,.73,0,1.8.28,2a4.45,4.45,0,0,0,1.68.22h5.32C188.77,51.22,188.82,51.34,188.82,55Z"/><path d="M182.8,81.83v81.33c0,1.83-.11,2-5.9,2-5.17,0-5.38,0-5.38-1.71V81.71c0-1.84.43-2,5.38-2C182.48,79.75,182.8,79.87,182.8,81.83Z"/><path class="cls-1" d="M167.49,192.29v39.87c0,.9-.05,1-2.92,1-2.57,0-2.67,0-2.67-.84V192.23c0-.9.21-1,2.67-1C167.34,191.27,167.49,191.33,167.49,192.29Z"/><path class="cls-1" d="M152,221.67v3.11c0,5-2.51,8.4-7.37,8.4-4.7,0-7.58-3.84-7.58-8.4V199.66c0-4.61,2.88-8.45,7.58-8.45,4.92,0,7.37,4.08,7.37,8.45v3.24c0,.6-.42.78-2.82.78-1.73,0-2.61.12-2.61-.66V199.9c0-.84-.58-2.52-1.94-2.52-1.62,0-2,1.86-2,3.42v22.6c0,1.68.36,3.42,2,3.42s1.94-1.44,1.94-2.4v-3.11c0-.84.47-.78,2.77-.78S152,220.59,152,221.67Z"/><path d="M145.91,79.75c5.17,0,6,.12,5.8,1.83-3.69,29.84-8.11,60.05-10.54,81.82-.21,1.83-1.26,1.83-5.79,1.83-4.85,0-5.9,0-6.11-2.07-2.11-19.82-5.8-52-9.38-81.7-.21-1.83.53-1.83,5.8-1.83,5.58,0,5.68.36,6,2.2,1.05,12.35,2.21,37.54,3.48,51.24,0,.49.1,1.22.42,1.22s.53-.61.53-1.22c1.47-13.82,3-40,4.21-51.24C140.54,79.75,140.86,79.75,145.91,79.75Z"/><path class="cls-1" d="M143,43.84V58.27c0,.9-.33.84-4.25.84s-4.14.06-4.14-1.12V46.38c0-1.58.22-3.38-1.4-3.38-1.29,0-1.4-.06-1.4.67v14.2c0,1.24-.67,1.24-4.53,1.24-3.3,0-3.86.06-3.86-1.69V21.35c0-1.69,0-1.69,1.67-1.69H133c5.87,0,9.79,3.44,9.79,9.24v4.51c0,5.08-4.14,5.41-4.14,5.7S143,39,143,43.84Z"/><path class="cls-1" d="M134.39,31.22c0-1.58.22-3.39-1.4-3.39-1,0-1.18,0-1.18.68v6.2c0,.73.22.68,1.18.68,1.23,0,1.4-1.24,1.4-1.86Z"/><path d="M90.59,59.11c1.52,0,4.54.06,4.43-.56-2.63-14.77-4.15-23.5-6.55-37.93-.17-1-2.69-1-4.09-1-1.23,0-4.14.06-4.25.85C78,35,76.6,43.78,74.2,58.61c-.06.5,3.19.5,4,.5,1.79,0,3.75.06,3.8-.56.28-3.27.45-4.62.79-7.78.05-.56.61-.45,1.67-.45.9,0,1.4-.11,1.46.45.45,3.1.62,4.51,1.06,7.67C87.12,59.23,89,59.11,90.59,59.11Z"/><path d="M46.52,36.34V28.9c0-5.8-3.91-9.24-9.79-9.24H28.62c-1.63,0-1.68,0-1.68,1.69V57.42c0,1.75.5,1.69,4.08,1.69s4.31.12,4.31-1V48c0-2.09.5-2.37,1.4-2.37C42.61,45.59,46.52,42.15,46.52,36.34Z"/><path d="M134.39,31.22v2.31c0,.62-.17,1.86-1.4,1.86-1,0-1.18,0-1.18-.68v-6.2c0-.73.17-.68,1.18-.68C134.61,27.83,134.39,29.64,134.39,31.22Z"/><path class="cls-1" d="M126.77,192.29v39.87c0,.9,0,1-2.92,1-2.57,0-2.67,0-2.67-.84V192.23c0-.9.21-1,2.67-1C126.62,191.27,126.77,191.33,126.77,192.29Z"/><path class="cls-1" d="M111.91,230.12c0,2.88,0,3.06-.68,3.06h-10c-.74,0-1.47,0-1.73-.36a4.25,4.25,0,0,1-.26-2.1V192.17c0-.84.26-1,2.61-1,2.67,0,3,.06,3,1V225c0,.78,0,1.8.32,2.1a3.06,3.06,0,0,0,1.41.24h4.65C111.86,227.3,111.91,227.6,111.91,230.12Z"/><path d="M100.59,98.09v48.56A19.66,19.66,0,0,1,96.06,160,15.55,15.55,0,0,1,84,165.23H73c-1.37,0-2.21.13-2.63-.85a5.7,5.7,0,0,1-.43-2.94v-78a6,6,0,0,1,.43-3.06c.63-.86,1.36-.73,2.73-.73H83.84a16.6,16.6,0,0,1,12.43,5C99.33,87.94,100.59,92.83,100.59,98.09Z"/><path d="M88.05,150.19c1.27-2.08,1.16-4.16,1.16-6V100.66c0-2.57-.1-4.89-1.37-6.72a3.81,3.81,0,0,0-3.47-1.47c-1.69,0-2.53,0-2.85.49a2.94,2.94,0,0,0-.31,1.71v55a4,4,0,0,0,.42,2.45c.31.37,1.47.24,2.42.24A4.71,4.71,0,0,0,88.05,150.19Z"/><path class="cls-1" d="M95,58.55c.11.62-2.91.56-4.43.56s-3.47.12-3.58-.67c-.44-3.16-.61-4.57-1.06-7.67-.06-.56-.56-.45-1.46-.45-1.06,0-1.62-.11-1.67.45-.34,3.16-.51,4.51-.79,7.78,0,.62-2,.56-3.8.56-.84,0-4.09,0-4-.5C76.6,43.78,78,35,80.13,20.45c.11-.79,3-.85,4.25-.85,1.4,0,3.92.06,4.09,1C90.87,35.05,92.39,43.78,95,58.55Z"/><path class="cls-1" d="M85.56,44.57c-.17-3.38-.34-5.07-.62-9.52,0-.28-.17-2.43-.56-2.43s-.5,2.48-.5,2.71c-.23,4.06-.45,5.75-.62,9.19,0,.45.11.45,1.07.45C85.11,45,85.56,45.14,85.56,44.57Z"/><path class="cls-1" d="M89.21,144.2c0,1.83.11,3.91-1.16,6a4.71,4.71,0,0,1-4,2.2c-1,0-2.11.13-2.42-.24a4,4,0,0,1-.42-2.45v-55A2.94,2.94,0,0,1,81.52,93c.32-.49,1.16-.49,2.85-.49a3.81,3.81,0,0,1,3.47,1.47c1.27,1.83,1.37,4.15,1.37,6.72Z"/><path class="cls-1" d="M89.13,200.26v7.86a9.65,9.65,0,0,1-2.61,6.95,7.92,7.92,0,0,1-5.86,2.22c-.73,0-1.15.36-1.15,1.86v13.07c0,1-.52,1-2.92,1s-2.67,0-2.67-1.32V193.07a2.73,2.73,0,0,1,.26-1.5c.26-.42.68-.36,1.31-.36h5.33a8.17,8.17,0,0,1,5.75,2.1C88.35,195,89.13,197.26,89.13,200.26Z"/><path class="cls-1" d="M82.86,210.33a4.81,4.81,0,0,0,.63-3.05v-5.76a5.68,5.68,0,0,0-.68-3.3,2,2,0,0,0-1.73-.72c-.63,0-1.2,0-1.41.24a1.38,1.38,0,0,0-.16.84V210c0,.6-.05,1.08.32,1.26a5.81,5.81,0,0,0,1.15.06A2.25,2.25,0,0,0,82.86,210.33Z"/><path d="M84.94,35.05c.28,4.45.45,6.14.62,9.52,0,.57-.45.4-1.23.4-1,0-1.07,0-1.07-.45.17-3.44.39-5.13.62-9.19,0-.23.17-2.71.5-2.71S84.94,34.77,84.94,35.05Z"/><path d="M83.49,207.28a4.81,4.81,0,0,1-.63,3.05,2.25,2.25,0,0,1-1.88,1,5.81,5.81,0,0,1-1.15-.06c-.37-.18-.32-.66-.32-1.26V198.58a1.38,1.38,0,0,1,.16-.84c.21-.24.78-.24,1.41-.24a2,2,0,0,1,1.73.72,5.68,5.68,0,0,1,.68,3.3Z"/><path class="cls-1" d="M64.36,232.34c.21.72-.42.84-2.87.84s-2.67,0-2.88-.78c-.57-3-1.25-7.26-1.88-11,0-.3-.15-1-.36-1s-.37.48-.42,1c-.63,4.07-1.26,7.79-1.88,10.85-.16.84-.42.9-2.93.9-2.35,0-2.93,0-2.72-1,1.47-6.24,2.77-12.23,4.34-18.95a4.92,4.92,0,0,0,.26-1.56l6.59-.12a4.68,4.68,0,0,0,.26,1.56C61.44,219.87,62.85,225.92,64.36,232.34Z"/><path class="cls-1" d="M61.17,191.21c2.62,0,3,.06,2.83.78-1.41,6.17-2.67,11.75-4,17.8a7.85,7.85,0,0,0-.42,1.74l-6.59.12a7.73,7.73,0,0,0-.31-1.68c-1.36-6.11-2.67-11.69-4.18-17.92-.16-.78.52-.84,2.82-.84,2.61,0,2.82,0,3,.84.52,4,1.1,7.79,1.57,10.49.1.42.21.84.41.84s.37-.54.42-.78c.47-3,1.1-6.95,1.62-10.61C58.46,191.21,58.56,191.21,61.17,191.21Z"/><path d="M40.44,230.18c0-2.64,0-2.88-.68-2.88h-5a3.69,3.69,0,0,1-1.57-.24c-.26-.18-.26-1.32-.26-2.1V216c0-.78-.1-1.38.37-1.74a3.46,3.46,0,0,1,1.3-.18H37c.68,0,.68-.36.68-2.88s-.05-3-.68-3h-2.5a1.56,1.56,0,0,1-1.15-.24c-.42-.36-.32-1-.32-1.56v-7.92c0-.78,0-.72.26-1.14.16-.24.79-.3,1.21-.3h5.22c.68,0,.68-.36.68-3.05,0-2.34,0-2.82-.63-2.82H29c-.53,0-.89,0-1.21.48a1.7,1.7,0,0,0-.36,1.32V230.9c0,.72-.11,1.62.31,2s1.26.24,2.09.24h10C40.39,233.18,40.44,232.94,40.44,230.18Z"/><path d="M50.23,164c.21,1.35-2.95,1.22-5.79,1.22-3.06,0-5.06.25-5.27-1.46-.85-6.85-1.27-11.5-2.11-18.23-.1-1.22-1.37-1-3.05-1-2,0-3.06-.25-3.17,1-.63,6.85-1.05,11.38-1.58,18.47-.1,1.35-2.42,1.22-5.79,1.22-1.58,0-5.27,0-5.16-1.1,3.9-31.92,6.64-53.32,10.11-82.79.21-1.71,3.16-1.84,5.48-1.84,2.63,0,5.48.13,5.69,2.21C43.7,113,46,132.09,50.23,164Z"/><path d="M33.9,135.39c1.37,0,2.42.25,2.32-.85-.53-9-.85-14.19-1.37-23.85,0-.61-.21-3.3-1-3.3-.53,0-.74,3.06-.74,3.54-.52,9.54-.95,15.66-1.37,23.49C31.69,135.27,32.32,135.39,33.9,135.39Z"/><path class="cls-1" d="M46.52,32.53v3.81c0,5.81-3.91,9.25-9.79,9.25-.9,0-1.4.28-1.4,2.37v10.2c0,1.07-.73,1-4.31,1s-4.08.06-4.08-1.69V21.35c0-1.69,0-1.69,1.68-1.69h8.11c5.88,0,9.79,3.44,9.79,9.24Z"/><path class="cls-1" d="M38.13,31.22c0-1.58.22-3.39-1.4-3.39-1.45,0-1.4,0-1.4.68V37.3c0,.74,0,.68,1.4.68,1.62,0,1.4-1.8,1.4-3.38Z"/><path class="cls-1" d="M39.76,227.3c.63,0,.68.24.68,2.88s0,3-.62,3h-10c-.83,0-1.72.12-2.09-.24s-.31-1.32-.31-2V193a1.7,1.7,0,0,1,.36-1.32c.32-.48.68-.48,1.21-.48H39.76c.63,0,.63.48.63,2.82,0,2.69,0,3.05-.68,3.05H34.49c-.42,0-1.05.06-1.21.3-.26.42-.26.36-.26,1.14v7.92c0,.54-.1,1.2.32,1.56a1.56,1.56,0,0,0,1.15.24H37c.63,0,.68.36.68,3s0,2.88-.68,2.88H34.64a3.46,3.46,0,0,0-1.3.18c-.47.36-.37,1-.37,1.74V225c0,.78,0,1.92.26,2.1a3.69,3.69,0,0,0,1.57.24Z"/><path d="M38.13,34.6c0,1.58.22,3.38-1.4,3.38-1.45,0-1.4.06-1.4-.68V28.51c0-.73,0-.68,1.4-.68,1.62,0,1.4,1.81,1.4,3.39Z"/><path class="cls-1" d="M34.85,110.69c.52,9.66.84,14.8,1.37,23.85.1,1.1-.95.85-2.32.85-1.58,0-2.21-.12-2.11-1,.42-7.83.85-13.95,1.37-23.49,0-.48.21-3.54.74-3.54C34.64,107.39,34.85,110.08,34.85,110.69Z"/></g></g></svg>