<svg xmlns="http://www.w3.org/2000/svg" viewBox="0 0 225.07 153.08"><g id="Layer_2" data-name="Layer 2"><g id="Layer_1-2" data-name="Layer 1"><path d="M148.6.14a76.57,76.57,0,0,0-8.88.54,74.18,74.18,0,0,0-18,0,76.88,76.88,0,0,0-9.16-.57,78.68,78.68,0,0,0-8.87.53,74.85,74.85,0,0,0-18,0,76.47,76.47,0,1,0-.29,151.83,74.26,74.26,0,0,0,18,0,76.71,76.71,0,0,0,9.15.57,78.85,78.85,0,0,0,8.88-.53,74.85,74.85,0,0,0,18,0A76.46,76.46,0,1,0,148.6.14Zm-44.86,14.6a76.37,76.37,0,0,0-.25,123.57l-.09,0a67.47,67.47,0,0,1,.24-123.66Zm8.91,4.78a67.43,67.43,0,0,1-.23,114,67.42,67.42,0,0,1,.23-114Zm8.68,118.82a76.36,76.36,0,0,0,.24-123.57l.1,0a67.48,67.48,0,0,1-.24,123.66ZM54.1,76.58a76.41,76.41,0,0,0,31.69,61.93,67.49,67.49,0,0,1,.28-124.06A76.39,76.39,0,0,0,54.1,76.58ZM171,76.5a76.39,76.39,0,0,0-31.7-61.93A67.49,67.49,0,0,1,139,138.63,76.39,76.39,0,0,0,171,76.5Zm-134.9,0a76.41,76.41,0,0,0,31.69,61.93A67.49,67.49,0,0,1,68,14.41,76.39,76.39,0,0,0,36.07,76.54Zm152.93,0a76.41,76.41,0,0,0-31.69-61.93A67.49,67.49,0,0,1,157,138.67,76.41,76.41,0,0,0,189,76.54ZM9,76.47A67.61,67.61,0,0,1,50,14.37a76.35,76.35,0,0,0-.28,124.07A67.61,67.61,0,0,1,9,76.47Zm166.1,62.24a76.37,76.37,0,0,0,.28-124.07,67.5,67.5,0,0,1-.28,124.07Z"/></g></g></svg>