<svg xmlns="http://www.w3.org/2000/svg" viewBox="0 0 225.07 226.12"><g id="Layer_2" data-name="Layer 2"><g id="Layer_1-2" data-name="Layer 1"><path d="M112.53,78.79c0-.14,0-.28,0-.42S112.53,78.43,112.53,78.79Z"/><path d="M26.4,112.11c.86,5.76,2.07,4.32,3.53,9.34,1.46-4.75,3.15.72,5,3.56,1.81,6.34,3.5-4.9,5-3.56,1.45-1,2.67-.87,3.52-9.34S44.71,101.44,44.71,99c0-1.66-.48-4.89-1.34-13.15-.85-3.53-2.07-10.67-3.52-9.34-1.46-4.42-3.15-8.28-5-3.56-1.81-12-3.5,7.07-5,3.56-1.46,5-2.67,13.86-3.53,9.34C25.55,88.58,25.06,87,25.06,99,25.06,100.12,25.55,112.06,26.4,112.11Z"/><path d="M82.1,107.5c.85-4.58,2.07,13.9,3.53,9.35,1.45,4.73,3.15,2,5,3.55,1.8,6.35,3.5-7.23,5-3.55,1.45-4.73,2.67-4.18,3.52-9.35.85-6.44,1.34-14.81,1.34-13.14a64.89,64.89,0,0,0-1.34-13.15c-.85-5.52-2.07-10.79-3.52-9.35-1.46-6-3.16-3.71-5-3.55-1.81,3.39-3.51,3.5-5,3.55C84.17,70.28,83,82.15,82.1,81.21a77.43,77.43,0,0,0-1.33,12.73C80.85,94.56,81.33,113.83,82.1,107.5Z"/><path d="M223.85,96.93a43.11,43.11,0,0,0-2.09-10.51c-.43-1.39-.88-2.83-1.38-5a4.54,4.54,0,0,0-.44-1.16,42.64,42.64,0,0,1-1.62-4.78c-1.4-4.6-2.46-7.87-4-9.93-.53-1-1.17-2.56-1.79-4.06-1.7-4.13-3.23-7.83-5.66-9.79C204.27,45,201.16,41,197,39a22,22,0,0,0-5.22-4.86,15,15,0,0,1-4.57-4.56,4.29,4.29,0,0,0-.36-.48c-4.84-5.69-9.21-9-13.67-10.34-2.41-1.45-4.9-2.78-7.32-4.08-1.6-.86-3.25-1.74-4.9-2.67-5-5.37-10.29-5.82-14.6-6.19-.69-.06-1.38-.11-2.08-.19a4.42,4.42,0,0,0-1.62.1c-.84.21-2.68-.65-4.3-1.42-2.6-1.23-5.75-2.72-9.34-2.3A25.41,25.41,0,0,0,112.52.86c-3.7-.86-7.13,0-10,.71a15.18,15.18,0,0,1-5,.75C92.71,1,88.28,2.77,84.7,4.23A36.59,36.59,0,0,1,81,5.58c-5.44-.42-11.61.24-17.18,6.8l-.61.5c-3,2.46-6.67,5.5-8.85,5.6C49,17.29,45,21.88,42,25.27a27.89,27.89,0,0,1-3.11,3.22,3.62,3.62,0,0,0-.42.36c-1.16,1.15-2.29,2.24-3.4,3.31-2.6,2.5-5.05,4.86-7.45,7.55A4.5,4.5,0,0,0,26.56,42c-.28,1.73-.54,3-.77,4a5.27,5.27,0,0,0-3.37.06c-3,1-4.09,4.09-4.82,7.34a28.68,28.68,0,0,1-3.15,5.41,29.59,29.59,0,0,0-4.15,7.74,3.62,3.62,0,0,0-.13.47,41.6,41.6,0,0,1-4,11.09c-.4.77-.81,1.57-1.17,2.37-1.2,2.52-2,6.8-3,12.13-.21,1.17-.41,2.29-.58,3.16C.6,97.72,0,102.1,0,113.58c0,.84.42,10.78,1.2,16.51,1.2,11.59,2.63,15.42,4.06,17.21l.18.4a107.37,107.37,0,0,1,4.8,12.75c0,.15.1.3.16.44a82.21,82.21,0,0,0,6.21,11.47c.35.59.71,1.17,1.08,1.78,1.55,6.29,3.66,8.91,7.9,9.89l.27.07a7.53,7.53,0,0,1,.92,1.92,4.49,4.49,0,0,0,3.43,2.87c1,.51,3.13,3.21,4.42,4.84s2.43,3.08,3.76,4.48a4.51,4.51,0,0,0,1.15.88,20.47,20.47,0,0,1,3.52,3.2c2.41,2.49,5.08,5.25,8.45,6.13,4.13,4.06,8.43,5.52,12.26,6.81l1,.33.17.15c4.22,3.45,9.83,8,16.17,6.25l1.12.61c2.89,1.58,6.49,3.55,10.44,3.55a11.49,11.49,0,0,0,5.28-1.29l.6-.06c4.46-.46,8.31-.86,12.08.92a4.49,4.49,0,0,0,3.87,0c4.72-2.29,8.58-2.65,12.13-1.14,5.93,2.9,11.5.16,15.59-1.84.94-.46,1.83-.9,2.67-1.26,3.91-.55,7.54-2.29,10.76-3.82,1.44-.69,2.79-1.34,4.09-1.85a4.41,4.41,0,0,0,1.89-1.41c3.57-4.59,6.61-5.08,10.38-5.69s6.46-3.5,8.88-6.12a21.1,21.1,0,0,1,3.09-3,4.48,4.48,0,0,0,3.4-2.33,17.94,17.94,0,0,1,7.38-7.86c.64-.4,1.27-.81,1.9-1.24a4.56,4.56,0,0,0,1.43-1.65,27.1,27.1,0,0,1,5-7,33.54,33.54,0,0,0,3.8-4.65,4.07,4.07,0,0,0,.5-1,8.94,8.94,0,0,1,2.56-4.28c1.89-1.86,3.57-3.84,4.9-9.3a26.75,26.75,0,0,1,2.33-5.58,28.06,28.06,0,0,0,3.19-9c.46-2.15.89-4.28,1.28-6.24.64-3.18,1.44-7.15,1.77-8a4.37,4.37,0,0,0,.4-1.27l.21-1.33c.65-4.1,1-6.36,1-15.33C225.07,109.36,224.73,101.22,223.85,96.93ZM215.2,127.5l-.13.84a76.37,76.37,0,0,0-2.19,9.39c-.38,1.92-.8,4-1.27,6.19a19.51,19.51,0,0,1-2.33,6.6,36.23,36.23,0,0,0-3,7.34,1.87,1.87,0,0,0-.07.22c-.84,3.52-1.5,4.16-2.49,5.13a17.23,17.23,0,0,0-4.54,7.15,29.77,29.77,0,0,1-2.6,3.07,35.72,35.72,0,0,0-5.91,7.95l-.7.45a26.07,26.07,0,0,0-9.51,9.5c-2.35,1-4.26,3.11-6.13,5.12-1.07,1.16-2.87,3.1-3.64,3.35-4.18.67-9.84,1.58-15.34,8.08-1.2.52-2.39,1.09-3.54,1.64-3,1.44-5.88,2.8-8.51,3.08a4.36,4.36,0,0,0-1.17.29c-1.33.52-2.61,1.15-3.84,1.75-3.91,1.92-5.95,2.72-7.75,1.82l-.22-.11c-5.45-2.37-11.44-2.24-17.84.41-5.29-1.89-10.33-1.37-14.82-.91l-1.49.15a4.49,4.49,0,0,0-1.94.66c-1.74,1.08-3.68.23-7.68-1.95-1.06-.58-2.16-1.18-3.3-1.71a4.48,4.48,0,0,0-1.89-.42,4.41,4.41,0,0,0-2.1.52c-1.89,1-4.64-1.07-8.62-4.33l-.8-.65a4.32,4.32,0,0,0-1.34-.75q-.91-.33-1.83-.63c-3.75-1.27-6.7-2.27-9.6-5.5a4.33,4.33,0,0,0-3.24-1.49c-.91-.19-3.11-2.46-4.29-3.69a28.78,28.78,0,0,0-5-4.46c-.93-1-1.9-2.25-2.83-3.43-2.34-3-4.59-5.79-7.3-7.23-1.81-3.75-4-5-6.74-5.64l-.11,0a15.21,15.21,0,0,1-1.25-3.86,4.74,4.74,0,0,0-.53-1.32l-1.49-2.43a75.34,75.34,0,0,1-5.5-10.08,116.75,116.75,0,0,0-5.09-13.48L13.17,143a4.51,4.51,0,0,0-.82-1.25c-.27-.6-1.29-3.39-2.24-12.66a1,1,0,0,0,0-.16C9.36,123.67,9,114.18,9,113.58c0-4.36.32-11.56.66-13.87a4.44,4.44,0,0,0,.4-1.09c.26-1.13.54-2.68.86-4.48.54-3.07,1.45-8.21,2.27-9.93.31-.7.64-1.34,1-2a49.85,49.85,0,0,0,4.68-12.87,21.26,21.26,0,0,1,3-5.43A37.82,37.82,0,0,0,26,56.51a1.67,1.67,0,0,0,.08-.2,5.38,5.38,0,0,0,3.31-.19c3.31-1.25,4.66-5,5.79-11.38,1.92-2.08,4-4.06,6.12-6.13,1.08-1,2.19-2.1,3.31-3.21a35.8,35.8,0,0,0,4.13-4.21c1.06-1.21,3-3.4,4-3.88a4.09,4.09,0,0,0,.61.1c5.77.47,10.75-3.64,15.57-7.61l.92-.76a5.28,5.28,0,0,0,.63-.62c3.13-3.82,5.86-4.29,10.45-3.85a4.39,4.39,0,0,0,1.35-.08,34.12,34.12,0,0,0,5.83-2c2.81-1.15,5.25-2.13,7.17-1.54a4.27,4.27,0,0,0,.54.13c3.28.58,6.3-.18,9-.85,2.44-.62,4.55-1.15,6.24-.53a4.46,4.46,0,0,0,3,0,16.71,16.71,0,0,1,12.69,1,4.48,4.48,0,0,0,3.14.22c1-.3,2.92.59,4.75,1.45,2.61,1.24,5.83,2.75,9.42,2.19l1.64.15c3.84.32,6.38.54,9.1,3.71a4.45,4.45,0,0,0,1.19,1c2,1.12,3.88,2.15,5.74,3.14,2.6,1.4,5,2.72,7.43,4.16a4.58,4.58,0,0,0,1.21.51c2.7.69,5.92,3.2,9.58,7.45a23.94,23.94,0,0,0,6.68,6.71,12.72,12.72,0,0,1,3.81,3.69A4.46,4.46,0,0,0,192.68,47c.85.28,3.44,1.13,6.26,9.27a4.5,4.5,0,0,0,2.4,2.62,39,39,0,0,1,2.86,6,52.49,52.49,0,0,0,2.44,5.36,4.28,4.28,0,0,0,.52.74c.72.94,1.93,4.93,2.58,7.07a50.25,50.25,0,0,0,2,5.85c.53,2.26,1,3.81,1.45,5.19A35.56,35.56,0,0,1,215,98a5.43,5.43,0,0,0,.09.56c.65,3,1.06,10.09,1.06,15C216.1,121.84,215.82,123.62,215.2,127.5Z"/><path d="M23.11,177.29c0,4.87,3.62,5.26,4.35,5.29h.25c4.1,0,4.45-4.06,4.66-6.51.13-1.43.29-3.42.48-5.87,3.74-.27,4.61-4.41,5.08-6.69.43-2,.85-4.65,1.3-7.43,0-.11,0-.22.05-.33a5.36,5.36,0,0,0,.94-.18c3.57-1,4.44-4.88,5.18-9.83.07-.33.13-.63.19-.89A5.94,5.94,0,0,0,51,142.47a8.88,8.88,0,0,1,2.2-1.05,17.89,17.89,0,0,0,4.91-2.62c4.25,1.4,7.52.09,9.75-3.9a1.39,1.39,0,0,1,.17-.21c.37.08,1,.3,1.41.45a19.16,19.16,0,0,0,3.09.87,4.71,4.71,0,0,0,3.67-1c.36.13.87.37,1.24.55a19.85,19.85,0,0,0,2.5,1c3.4,3.81,7.27,3.35,9.24,3.12l.31,0a23,23,0,0,0,5.74,3.61c.84,2.6,2.07,4.87,4.26,5.95a6,6,0,0,0,4.23.37,8.12,8.12,0,0,0,2.53,1.37,12.39,12.39,0,0,1,.54,1.78c1.17,5.59,2.48,8.32,4.92,9.87l.49,1.34a24.91,24.91,0,0,1,1.4,4.73c.35,4.13.6,6.12.76,7.32a11.11,11.11,0,0,1,.13,1.31h9a18.3,18.3,0,0,0-.21-2.46c-.15-1.14-.4-3.06-.74-7.12,0-.13,0-.27,0-.39a32.26,32.26,0,0,0-1.86-6.51c-.29-.8-.62-1.66-1-2.71a4.57,4.57,0,0,0-1.43-2.08,6.89,6.89,0,0,0-1.44-.89,20.46,20.46,0,0,1-1.21-4.3l0-.14c-1.15-4.8-2.82-7-6.16-8.16h0a4.4,4.4,0,0,0-.54-.67,5.53,5.53,0,0,0-5.14-1.68c-.14-.47-.3-1.06-.47-1.8a4.49,4.49,0,0,0-4.65-3.45c-.77-.17-2.67-1.67-3.82-2.57l-.92-.72a4.42,4.42,0,0,0-2-.87,12.1,12.1,0,0,0-3.68,0,10.23,10.23,0,0,1-1.2.1,2.58,2.58,0,0,1-.73-.85,4.38,4.38,0,0,0-3.45-2,9,9,0,0,1-1.47-.62c-1.69-.8-5.23-2.48-8.83-.72l0,0c-2.35-.83-7.86-2.76-12,3.28l-.08.11a7,7,0,0,0-7.95,1.85A10.46,10.46,0,0,1,50,133.05a16.71,16.71,0,0,0-4.5,2.37,5.79,5.79,0,0,0-4.36.3c-2.67,1.34-3.76,4.32-4.56,8.38a1.55,1.55,0,0,0,0,.21c0,.25-.07.48-.11.69a5.88,5.88,0,0,0-1.06.15c-3.29.82-4.07,4.31-4.36,5.62,0,.07,0,.15,0,.22-.19,1.1-.37,2.23-.55,3.34-4.08.29-4.62,3.93-5.44,9.45-.09.6-.21,1.39-.31,2a4.49,4.49,0,0,0-.63,1.95l-.08,1"/></g></g></svg>