<svg xmlns="http://www.w3.org/2000/svg" viewBox="0 0 225.07 225.07"><g id="Layer_2" data-name="Layer 2"><g id="Layer_1-2" data-name="Layer 1"><path d="M68.56,114.53c6.26,0,11.33-8.28,11.33-18.5s-5.07-18.5-11.33-18.5S57.23,85.82,57.23,96,62.3,114.53,68.56,114.53Z"/><path d="M156.5,114.53c6.26,0,11.33-8.28,11.33-18.5s-5.07-18.5-11.33-18.5S145.17,85.82,145.17,96,150.25,114.53,156.5,114.53Z"/><path d="M112.53,0A112.54,112.54,0,1,0,225.07,112.53,112.66,112.66,0,0,0,112.53,0Zm0,216.1A103.57,103.57,0,1,1,216.1,112.53,103.69,103.69,0,0,1,112.53,216.1Z"/><path d="M164.31,164.31a73.2,73.2,0,0,1-125-51.78h-9a82.19,82.19,0,1,0,164.37,0h-9a73,73,0,0,1-21.44,51.78Z"/></g></g></svg>