<svg xmlns="http://www.w3.org/2000/svg" viewBox="0 0 225.06 135.14"><g id="Layer_2" data-name="Layer 2"><g id="Layer_1-2" data-name="Layer 1"><path d="M190.58,33.34C171,25.63,145.4,21.16,118.06,20.63L112.53,0,107,20.63c-27.34.53-52.91,5-72.51,12.71C12.25,42.09,0,54.25,0,67.57S12.25,93.05,34.49,101.8C54.09,109.52,79.66,114,107,114.51l5.53,20.63,5.53-20.63c27.34-.53,52.91-5,72.52-12.71,22.24-8.75,34.48-20.9,34.48-34.23S212.82,42.09,190.58,33.34Zm-78.05,67.18-7-26-26-7,26-7,7-26,7,26,26,7-26,7ZM9,67.57C9,50,47.05,31.25,104.58,29.65L98.25,53.29,45,67.57,98.25,81.86l6.33,23.63C47.05,103.89,9,85.14,9,67.57Zm111.52,37.92,6.34-23.63L180.1,67.57,126.82,53.29l-6.34-23.64C178,31.25,216.1,50,216.1,67.57S178,103.89,120.48,105.49Z"/></g></g></svg>