<svg xmlns="http://www.w3.org/2000/svg" version="1.1" viewBox="-5.0 -10.0 110.0 135.0">
 <path d="m84 13c-7.7305 0.007812-13.992 6.2695-14 14v11c0 1.6562-1.3438 3-3 3s-3-1.3438-3-3v-22c0-7.7305-6.2695-14-14-14s-14 6.2695-14 14v22c0 1.6562-1.3438 3-3 3s-3-1.3438-3-3v-11c0-7.7305-6.2695-14-14-14s-14 6.2695-14 14v46c0 7.7305 6.2695 14 14 14s14-6.2695 14-14v-11c0-1.6562 1.3438-3 3-3s3 1.3438 3 3v22c0 7.7305 6.2695 14 14 14s14-6.2695 14-14v-22c0-1.6562 1.3438-3 3-3s3 1.3438 3 3v11c0 7.7305 6.2695 14 14 14s14-6.2695 14-14v-46c-0.007812-7.7305-6.2695-13.992-14-14zm8 60c0 4.418-3.582 8-8 8s-8-3.582-8-8v-11c0-4.9727-4.0273-9-9-9s-9 4.0273-9 9v22c0 4.418-3.582 8-8 8s-8-3.582-8-8v-22c0-4.9727-4.0273-9-9-9s-9 4.0273-9 9v11c0 4.418-3.582 8-8 8s-8-3.582-8-8v-46c0-4.418 3.582-8 8-8s8 3.582 8 8v11c0 4.9727 4.0273 9 9 9s9-4.0273 9-9v-22c0-4.418 3.582-8 8-8s8 3.582 8 8v22c0 4.9727 4.0273 9 9 9s9-4.0273 9-9v-11c0-4.418 3.582-8 8-8s8 3.582 8 8z"/>
</svg>