<svg xmlns="http://www.w3.org/2000/svg" data-name="Layer 2" viewBox="0 0 128 160" x="0px" y="0px">
    <path d="m64,2C29.81,2,2,29.81,2,64s27.81,62,62,62,62-27.81,62-62S98.19,2,64,2Zm0,120c-31.98,0-58-26.02-58-58S32.02,6,64,6s58,26.02,58,58-26.02,58-58,58Z"/><path d="m107,62c-1.1,0-2,.9-2,2,0,22.61-18.39,41-41,41s-41-18.39-41-41c0-1.1-.9-2-2-2s-2,.9-2,2c0,24.81,20.19,45,45,45s45-20.19,45-45c0-1.1-.9-2-2-2Z"/><path d="m25.4,48c5.62,1.77,8.45,2.66,9.93,4.63,1.58,2.11,2.27,5.99,3.63,13.72.17.96,1,1.65,1.97,1.65h.13c.97,0,1.8-.7,1.97-1.65,1.37-7.73,2.05-11.61,3.63-13.72,1.48-1.97,4.3-2.86,9.93-4.63.83-.26,1.4-1.03,1.4-1.91v-.18c0-.87-.57-1.65-1.4-1.91-5.62-1.77-8.45-2.66-9.93-4.63-1.58-2.11-2.27-5.99-3.63-13.72-.17-.96-1-1.65-1.97-1.65h-.13c-.97,0-1.8.7-1.97,1.65-1.37,7.73-2.05,11.61-3.63,13.72-1.48,1.97-4.3,2.86-9.93,4.63-.83.26-1.4,1.03-1.4,1.91v.18c0,.87.57,1.65,1.4,1.91Zm15.6-12.11c1.56,6.08,3.5,8.06,8.95,10.12-5.46,2.05-7.39,4.04-8.95,10.12-1.56-6.08-3.5-8.06-8.95-10.12,5.46-2.05,7.39-4.04,8.95-10.12Z"/><path d="m71.4,48c5.62,1.77,8.45,2.66,9.93,4.63,1.58,2.11,2.27,5.99,3.63,13.72.17.96,1,1.65,1.97,1.65h.13c.97,0,1.8-.7,1.97-1.65,1.37-7.73,2.05-11.61,3.63-13.72,1.48-1.97,4.3-2.86,9.93-4.63.83-.26,1.4-1.03,1.4-1.91v-.18c0-.87-.57-1.65-1.4-1.91-5.62-1.77-8.45-2.66-9.93-4.63-1.58-2.11-2.27-5.99-3.63-13.72-.17-.96-1-1.65-1.97-1.65h-.13c-.97,0-1.8.7-1.97,1.65-1.37,7.73-2.05,11.61-3.63,13.72-1.48,1.97-4.3,2.86-9.93,4.63-.83.26-1.4,1.03-1.4,1.91v.18c0,.87.57,1.65,1.4,1.91Zm15.6-12.11c1.56,6.08,3.5,8.06,8.95,10.12-5.46,2.05-7.39,4.04-8.95,10.12-1.56-6.08-3.5-8.06-8.95-10.12,5.46-2.05,7.39-4.04,8.95-10.12Z"/>
</svg>