<svg xmlns="http://www.w3.org/2000/svg" version="1.1" viewBox="-5.0 -10.0 110.0 135.0">
 <path d="m49.5 80c-0.31641 0-0.63281-0.003906-0.94922-0.015625-22.059-0.53516-39.805-13.223-40.527-28.984-0.015626-0.33203-0.023438-0.66406-0.023438-1s0.007812-0.66797 0.023438-1c0.72266-15.762 18.469-28.449 40.527-28.98 0.31641-0.011719 0.63281-0.019531 0.94922-0.019531h0.19922 0.30078c0.33594 0 0.66797 0.003906 1 0.007812 22.27 0.37109 40.25 13.125 40.977 28.992 0.015626 0.33203 0.023438 0.66406 0.023438 1s-0.007812 0.66797-0.023438 1c-0.72656 15.867-18.707 28.621-40.977 28.992-0.33203 0.003906-0.66406 0.007812-1 0.007812h-0.30078-0.19922zm12.551-3.3008c6.3359-1.4062 11.969-3.8867 16.484-7.1133 0.11719-0.082032 0.23438-0.16797 0.34766-0.25-2.0195-0.92188-4.2461-1.7461-6.6445-2.4609-2.582 4.1328-6.0859 7.5234-10.188 9.8242zm11.219-11.602c2.6797 0.82031 5.1523 1.7812 7.3789 2.8594 5.6367-4.707 9.0039-10.621 9.3242-16.957h-12.988c-0.15234 5.1289-1.4883 9.9336-3.7148 14.098zm1.7148-14.098c-0.15625 4.9648-1.4844 9.5781-3.6797 13.531-2.7188-0.73828-5.625-1.3359-8.6758-1.7812 0.81641-3.5859 1.2969-7.5586 1.3633-11.75zm2-2h12.988c-0.32031-6.3359-3.6875-12.25-9.3242-16.953-2.2266 1.0742-4.6992 2.0352-7.3789 2.8555 2.2266 4.1641 3.5625 8.9688 3.7148 14.098zm-5.6797-13.531c2.1953 3.9531 3.5234 8.5664 3.6797 13.531h-10.992c-0.066407-4.1914-0.54688-8.1641-1.3633-11.75 3.0508-0.44141 5.957-1.043 8.6758-1.7812zm0.93359-2.3438c2.3984-0.71484 4.625-1.5391 6.6445-2.4609-0.11328-0.082031-0.23047-0.16797-0.34766-0.25-4.5156-3.2266-10.148-5.707-16.484-7.1133 4.1016 2.3008 7.6055 5.6914 10.188 9.8242zm-35.992-9.418c-5.6406 1.457-10.676 3.7734-14.781 6.707-0.11719 0.082032-0.23438 0.16797-0.34766 0.25 1.7812 0.8125 3.7266 1.5508 5.8047 2.2031 2.4141-3.7773 5.6055-6.9258 9.3242-9.1602zm-7.3242 9.75c3.4883-5.2148 8.5781-9.0352 14.43-10.633-2.7188 2.6367-4.9766 6.9648-6.4531 12.332-2.8086-0.4375-5.4805-1.0078-7.9766-1.6992zm-3.0469 1.1758c-2.3516-0.75781-4.5352-1.625-6.5234-2.5859-5.6367 4.7031-9.0039 10.617-9.3242 16.953h11.988c0.15625-5.2383 1.5469-10.141 3.8594-14.367zm-1.8594 14.367c0.16016-5.0664 1.5391-9.7656 3.8125-13.773 2.6836 0.76953 5.5547 1.3984 8.5781 1.8789-0.83594 3.6211-1.332 7.6445-1.3984 11.895zm-2 2h-11.988c0.32031 6.3359 3.6875 12.25 9.3242 16.957 1.9883-0.96484 4.1719-1.832 6.5234-2.5898-2.3125-4.2266-3.7031-9.1289-3.8594-14.367zm5.8125 13.773c-2.2734-4.0078-3.6523-8.707-3.8125-13.773h10.992c0.066407 4.25 0.5625 8.2734 1.3984 11.898-3.0234 0.47656-5.8945 1.1055-8.5781 1.875zm-0.90625 2.3594c-2.0781 0.65234-4.0234 1.3906-5.8047 2.2031 0.11328 0.082031 0.23047 0.16797 0.34766 0.25 4.1055 2.9336 9.1406 5.25 14.781 6.707-3.7188-2.2344-6.9102-5.3789-9.3242-9.1602zm28.727 10.043c2.7422-2.6602 5.0156-7.043 6.4961-12.477 2.8398 0.40625 5.5469 0.95312 8.0859 1.6172-3.4961 5.332-8.6484 9.2383-14.582 10.859zm-12.297 0c-5.8516-1.5977-10.941-5.418-14.43-10.633 2.4961-0.69141 5.168-1.2617 7.9766-1.6992 1.4766 5.3672 3.7344 9.6953 6.4531 12.332zm12.297-54.352c5.9336 1.6211 11.086 5.5273 14.582 10.859-2.5391 0.66797-5.2461 1.2109-8.0859 1.6172-1.4805-5.4336-3.7539-9.8164-6.4961-12.477zm-4.6484 39.039c3.3164 0.035157 6.543 0.25 9.6367 0.62109 0.80469-3.4688 1.2891-7.3555 1.3555-11.484h-10.992zm-2-10.863v10.863c-3.6641 0.039063-7.2188 0.29688-10.609 0.74609-0.82031-3.5039-1.3125-7.4297-1.3828-11.609zm0 12.863c-3.4961 0.039063-6.8828 0.27734-10.105 0.69531 0.60156 2.1328 1.3281 4.0742 2.1523 5.7852 2.3867 4.9336 5.2852 7.3594 7.9531 7.6328zm11.141 0.57812c-2.9336-0.34375-5.9922-0.54297-9.1406-0.57812v13.91c2.3789-0.70703 4.8633-3.1094 6.9531-7.4297 0.83984-1.7422 1.5781-3.7266 2.1875-5.9023zm0-28.883c-0.60938-2.1758-1.3477-4.1602-2.1875-5.9023-2.0898-4.3203-4.5742-6.7227-6.9531-7.4297v13.91c3.1484-0.035157 6.207-0.23438 9.1406-0.57812zm-11.141 0.57812v-14.109c-2.668 0.26953-5.5664 2.6953-7.9531 7.6289-0.82422 1.7109-1.5508 3.6523-2.1523 5.7852 3.2227 0.41797 6.6094 0.65625 10.105 0.69531zm-10.609 1.2539c3.3906 0.44922 6.9453 0.70703 10.609 0.74609v10.863h-11.992c0.070313-4.1797 0.5625-8.1055 1.3828-11.609zm12.609 0.74609v10.863h10.992c-0.066407-4.1289-0.55078-8.0156-1.3555-11.484-3.0938 0.37109-6.3203 0.58594-9.6367 0.62109z" fill-rule="evenodd"/>
</svg>