<svg xmlns="http://www.w3.org/2000/svg" xmlns:xlink="http://www.w3.org/1999/xlink" xmlns:xodm="http://www.corel.com/coreldraw/odm/2003" xml:space="preserve" version="1.1" shape-rendering="geometricPrecision" text-rendering="geometricPrecision" image-rendering="optimizeQuality" fill-rule="evenodd" clip-rule="evenodd" viewBox="0 0 40 50" x="0px" y="0px"><g><path fill="black" d="M24.75 15.05l-0.06 -6.96c0,-0.18 -0.06,-0.35 -0.19,-0.49l-2.3 -2.38c-0.05,-0.05 -0.1,-0.1 -0.16,-0.13 -0.32,-0.18 -0.73,-0.08 -0.91,0.24l-5.64 9.72 -9.22 -0.01c-0.18,-0.01 -0.36,0.05 -0.5,0.18 -0.26,0.26 -0.27,0.68 -0.01,0.95l2.22 2.27c0.03,0.04 0.06,0.08 0.09,0.12l3.37 3.45 -5.59 9.58c-0.13,0.22 -0.13,0.5 0.01,0.71 0.09,0.14 2.24,2.32 2.36,2.46 0.21,0.26 0.59,0.32 0.88,0.13l9.1 -5.92 3.32 3.43 2.32 2.4 0 -0.01c0.12,0.13 0.29,0.21 0.49,0.21 0.36,0 0.66,-0.31 0.65,-0.68l-0.12 -9.67 9.24 -5.98c0.05,-0.02 0.09,-0.06 0.13,-0.09 0.26,-0.26 0.27,-0.68 0.01,-0.95l-2.31 -2.39 0 0c-0.13,-0.14 -0.32,-0.21 -0.51,-0.2l-6.67 0.01zm-3.69 -6.94l0.04 3.84 0 0.01 0.03 3.77c0.01,0.36 0.3,0.66 0.67,0.66 2.46,0 4.92,-0.01 7.38,-0.02l-7.67 4.97c-0.21,0.13 -0.32,0.36 -0.31,0.59l0.11 8.33 -2.53 -2.62 0 0 -2.31 -2.39c-0.23,-0.24 -0.6,-0.27 -0.86,-0.08l-3.57 2.31 -2.63 1.72 -0.99 0.64 4.44 -7.61c0.17,-0.28 0.1,-0.63 -0.13,-0.83l-4.9 -5.03 8.05 0.02c0.24,0 0.46,-0.13 0.57,-0.33l0 0 4.61 -7.95z"/></g><text x="0" y="55" fill="#000000" font-size="5px" font-weight="bold" font-family="'Helvetica Neue', Helvetica, Arial-Unicode, Arial, Sans-serif">Created by Wawan Waluyo</text><text x="0" y="60" fill="#000000" font-size="5px" font-weight="bold" font-family="'Helvetica Neue', Helvetica, Arial-Unicode, Arial, Sans-serif">from the Noun Project</text></svg>